<svg data-v-423bf9ae="" xmlns="http://www.w3.org/2000/svg" viewBox="0 0 263 90" class="iconLeft"><!----><!----><!----><g data-v-423bf9ae="" id="007a09c9-1e5c-4143-9ed4-302ed9c80d15" fill="white" transform="matrix(6.1224488604322,0,0,6.1224488604322,101.91836185958772,-5.142855086757571)"><path d="M1.62 13.09L1.62 13.09Q1.48 13.09 1.40 13.01L1.40 13.01L1.40 13.01Q1.32 12.92 1.32 12.78L1.32 12.78L1.32 3.61L1.32 3.61Q1.32 3.47 1.40 3.38L1.40 3.38L1.40 3.38Q1.48 3.29 1.62 3.29L1.62 3.29L4.61 3.29L4.61 3.29Q6.06 3.29 6.91 3.72L6.91 3.72L6.91 3.72Q7.76 4.14 8.11 4.97L8.11 4.97L8.11 4.97Q8.47 5.80 8.50 7.07L8.50 7.07L8.50 7.07Q8.51 7.49 8.51 8.18L8.51 8.18L8.51 8.18Q8.51 8.88 8.50 9.30L8.50 9.30L8.50 9.30Q8.47 10.64 8.11 11.46L8.11 11.46L8.11 11.46Q7.76 12.28 6.93 12.68L6.93 12.68L6.93 12.68Q6.10 13.09 4.68 13.09L4.68 13.09L1.62 13.09ZM2.20 12.25L4.61 12.25L4.61 12.25Q5.73 12.25 6.37 11.95L6.37 11.95L6.37 11.95Q7.01 11.65 7.30 11.00L7.30 11.00L7.30 11.00Q7.59 10.35 7.62 9.23L7.62 9.23L7.62 9.23Q7.63 8.81 7.63 8.18L7.63 8.18L7.63 8.18Q7.63 7.56 7.62 7.14L7.62 7.14L7.62 7.14Q7.59 5.57 6.88 4.85L6.88 4.85L6.88 4.85Q6.17 4.13 4.54 4.13L4.54 4.13L2.20 4.13L2.20 12.25ZM11.10 13.09L11.10 13.09Q10.96 13.09 10.88 13.01L10.88 13.01L10.88 13.01Q10.79 12.92 10.79 12.78L10.79 12.78L10.79 3.61L10.79 3.61Q10.79 3.47 10.88 3.38L10.88 3.38L10.88 3.38Q10.96 3.29 11.10 3.29L11.10 3.29L16.56 3.29L16.56 3.29Q16.72 3.29 16.80 3.37L16.80 3.37L16.80 3.37Q16.88 3.46 16.88 3.61L16.88 3.61L16.88 3.82L16.88 3.82Q16.88 3.96 16.79 4.05L16.79 4.05L16.79 4.05Q16.70 4.13 16.56 4.13L16.56 4.13L11.68 4.13L11.68 7.70L16.25 7.70L16.25 7.70Q16.41 7.70 16.49 7.78L16.49 7.78L16.49 7.78Q16.58 7.87 16.58 8.02L16.58 8.02L16.58 8.23L16.58 8.23Q16.58 8.37 16.48 8.46L16.48 8.46L16.48 8.46Q16.39 8.54 16.25 8.54L16.25 8.54L11.68 8.54L11.68 12.25L16.67 12.25L16.67 12.25Q16.83 12.25 16.91 12.33L16.91 12.33L16.91 12.33Q17.00 12.42 17.00 12.57L17.00 12.57L17.00 12.78L17.00 12.78Q17.00 12.92 16.91 13.01L16.91 13.01L16.91 13.01Q16.81 13.09 16.67 13.09L16.67 13.09L11.10 13.09ZM22.04 13.09L22.04 13.09Q21.69 13.09 21.56 12.75L21.56 12.75L18.31 3.72L18.28 3.57L18.28 3.57Q18.28 3.46 18.37 3.37L18.37 3.37L18.37 3.37Q18.45 3.29 18.56 3.29L18.56 3.29L18.86 3.29L18.86 3.29Q18.98 3.29 19.06 3.36L19.06 3.36L19.06 3.36Q19.14 3.43 19.17 3.50L19.17 3.50L22.23 12.07L25.30 3.50L25.30 3.50Q25.33 3.43 25.40 3.36L25.40 3.36L25.40 3.36Q25.48 3.29 25.61 3.29L25.61 3.29L25.90 3.29L25.90 3.29Q26.01 3.29 26.10 3.37L26.10 3.37L26.10 3.37Q26.18 3.46 26.18 3.57L26.18 3.57L26.15 3.72L22.90 12.75L22.90 12.75Q22.78 13.09 22.43 13.09L22.43 13.09L22.04 13.09Z"></path></g><!----><g data-v-423bf9ae="" id="9cf6b8e0-2e8a-413a-8b14-c5daf79609e6" transform="matrix(2.8125,0,0,2.8125,0,0)" stroke="none" fill="white"><path d="M9.571 20.464l8.064 4.47 8.065-4.47v-8.939l-8.065-4.469-8.064 4.469z"></path><path d="M32 0H0v32h32l-5.054-5.172H5.054V5.172h21.892z"></path></g><!----></svg>